<svg width="22" height="23" viewBox="0 0 22 23" fill="none" xmlns="http://www.w3.org/2000/svg">
<path d="M15.17 11.5L21.4244 4.96133C22.1919 4.15895 22.1919 2.85801 21.4244 2.05497L20.0344 0.60179C19.2669 -0.200597 18.0225 -0.200597 17.2544 0.60179L11 7.14045L4.74563 0.60179C3.97813 -0.200597 2.73375 -0.200597 1.96563 0.60179L0.575625 2.05497C-0.191875 2.85736 -0.191875 4.15829 0.575625 4.96133L6.83 11.5L0.575625 18.0387C-0.191875 18.8411 -0.191875 20.142 0.575625 20.945L1.96563 22.3982C2.73313 23.2006 3.97813 23.2006 4.74563 22.3982L11 15.8595L17.2544 22.3982C18.0219 23.2006 19.2669 23.2006 20.0344 22.3982L21.4244 20.945C22.1919 20.1426 22.1919 18.8417 21.4244 18.0387L15.17 11.5Z" fill="black"/>
</svg>
